<?xml version="1.0" encoding="utf-8"?>
<svg id="visual" viewBox="0 0 900 600" width="900" height="600" version="1.1" xmlns="http://www.w3.org/2000/svg">
  <rect x="0" y="0" width="900" height="600" fill="#000a11"/>
  <path d="M0 355L21.5 361.3C43 367.7 86 380.3 128.8 392.8C171.7 405.3 214.3 417.7 257.2 427C300 436.3 343 442.7 385.8 441C428.7 439.3 471.3 429.7 514.2 413.3C557 397 600 374 642.8 374.2C685.7 374.3 728.3 397.7 771.2 399.2C814 400.7 857 380.3 878.5 370.2L900 360L900 601L878.5 601C857 601 814 601 771.2 601C728.3 601 685.7 601 642.8 601C600 601 557 601 514.2 601C471.3 601 428.7 601 385.8 601C343 601 300 601 257.2 601C214.3 601 171.7 601 128.8 601C86 601 43 601 21.5 601L0 601Z" fill="#1f7f7f"/>
  <path d="M0 437L21.5 437.8C43 438.7 86 440.3 128.8 439.8C171.7 439.3 214.3 436.7 257.2 429.7C300 422.7 343 411.3 385.8 418.2C428.7 425 471.3 450 514.2 459C557 468 600 461 642.8 461.7C685.7 462.3 728.3 470.7 771.2 461.7C814 452.7 857 426.3 878.5 413.2L900 400L900 601L878.5 601C857 601 814 601 771.2 601C728.3 601 685.7 601 642.8 601C600 601 557 601 514.2 601C471.3 601 428.7 601 385.8 601C343 601 300 601 257.2 601C214.3 601 171.7 601 128.8 601C86 601 43 601 21.5 601L0 601Z" fill="#1e7373"/>
  <path d="M0 444L21.5 454.2C43 464.3 86 484.7 128.8 495.3C171.7 506 214.3 507 257.2 507.2C300 507.3 343 506.7 385.8 498.7C428.7 490.7 471.3 475.3 514.2 475.8C557 476.3 600 492.7 642.8 499.5C685.7 506.3 728.3 503.7 771.2 494.2C814 484.7 857 468.3 878.5 460.2L900 452L900 601L878.5 601C857 601 814 601 771.2 601C728.3 601 685.7 601 642.8 601C600 601 557 601 514.2 601C471.3 601 428.7 601 385.8 601C343 601 300 601 257.2 601C214.3 601 171.7 601 128.8 601C86 601 43 601 21.5 601L0 601Z" fill="#1d6767"/>
  <path d="M0 532L21.5 530.3C43 528.7 86 525.3 128.8 524.7C171.7 524 214.3 526 257.2 525.7C300 525.3 343 522.7 385.8 520C428.7 517.3 471.3 514.7 514.2 510.2C557 505.7 600 499.3 642.8 498.5C685.7 497.7 728.3 502.3 771.2 506C814 509.7 857 512.3 878.5 513.7L900 515L900 601L878.5 601C857 601 814 601 771.2 601C728.3 601 685.7 601 642.8 601C600 601 557 601 514.2 601C471.3 601 428.7 601 385.8 601C343 601 300 601 257.2 601C214.3 601 171.7 601 128.8 601C86 601 43 601 21.5 601L0 601Z" fill="#1b5b5b"/>
  <path d="M0 569L21.5 561.7C43 554.3 86 539.7 128.8 535.7C171.7 531.7 214.3 538.3 257.2 542.5C300 546.7 343 548.3 385.8 549.5C428.7 550.7 471.3 551.3 514.2 549.5C557 547.7 600 543.3 642.8 540.3C685.7 537.3 728.3 535.7 771.2 536.5C814 537.3 857 540.7 878.5 542.3L900 544L900 601L878.5 601C857 601 814 601 771.2 601C728.3 601 685.7 601 642.8 601C600 601 557 601 514.2 601C471.3 601 428.7 601 385.8 601C343 601 300 601 257.2 601C214.3 601 171.7 601 128.8 601C86 601 43 601 21.5 601L0 601Z" fill="#194f4f"/>
</svg>